<svg version="1.1" id="Layer_1" xmlns="http://www.w3.org/2000/svg" xmlns:xlink="http://www.w3.org/1999/xlink" x="0px" y="0px"
	 viewBox="-274 366 62 62" style="enable-background:new -274 366 62 62;" xml:space="preserve">
<g>
	<g>
		<g>
			<path fill="#A9A9A9" d="M-229.2,398.6c-0.3,0.1-0.6,0.1-0.8,0s-0.8-0.6-1.2-1l-11.1-11.1c-0.4-0.4-1-0.4-1.4,0l-11.1,11.1
				c-0.4,0.4-1.1,0.9-1.6,1.1c0,0-0.1,0-0.5-0.4s-0.4-0.5-0.4-0.5c0.2-0.5,0.7-1.3,1.1-1.6l11.8-11.8c0.4-0.4,0.9-0.8,1.2-0.9
				s1.2,0.5,1.6,0.9l11.8,11.8c0.4,0.4,0.9,1.1,1.1,1.6c0,0,0,0.1-0.4,0.5C-229.2,398.6-229.2,398.6-229.2,398.6z"/>
		</g>
		<g>
			<path fill="#A9A9A9" d="M-228.8,408.7c-0.5-0.2-1.3-0.4-1.9-0.4s-1-0.5-1-1V402c0-0.5-0.2-1.4-0.4-1.9c0,0,0-0.1-0.6-0.1
				s-0.6,0.1-0.6,0.1c-0.2,0.5-0.4,1.4-0.4,1.9v5.2c0,0.5-0.4,1-1,1h-3.4c-0.6,0-1-0.5-1-1v-7.3c0-0.5-0.1-1.2-0.2-1.5
				s-1.2-0.5-1.8-0.5h-3.9c-0.6,0-1.2,0.1-1.5,0.2s-0.5,1.2-0.5,1.8v7.3c0,0.5-0.4,1-1,1h-3.4c-0.6,0-1-0.5-1-1V402
				c0-0.5-0.2-1.4-0.4-1.9c0,0,0-0.1-0.6-0.1s-0.6,0.1-0.6,0.1c-0.2,0.5-0.4,1.4-0.4,1.9v5.2c0,0.5-0.4,1-1,1s-1.4,0.2-1.9,0.4
				c0,0-0.1,0-0.1,0.6s0.1,0.6,0.1,0.6c0.5,0.2,1.4,0.4,1.9,0.4h24.5c0.6,0,1.4-0.2,1.9-0.4c0,0,0.1,0,0.1-0.6
				S-228.8,408.7-228.8,408.7z M-244.9,400.9c0-0.5,0.4-1,1-1h1.9c0.6,0,1,0.5,1,1v6.3c0,0.5-0.4,1-1,1h-1.9c-0.6,0-1-0.5-1-1V400.9
				z"/>
		</g>
	</g>
</g>
</svg>
