<?xml version="1.0" encoding="utf-8"?>
<!-- Generator: Adobe Illustrator 19.1.1, SVG Export Plug-In . SVG Version: 6.00 Build 0)  -->
<svg version="1.1" id="Layer_1" xmlns="http://www.w3.org/2000/svg" xmlns:xlink="http://www.w3.org/1999/xlink" x="0px" y="0px"
	 viewBox="-274 366 62 62" style="enable-background:new -274 366 62 62;" xml:space="preserve">
<style type="text/css">
	.clientList{fill:#FFFFFF;}
</style>
<g>
	<path class="clientList" d="M-243,398.8c-3.7,0-6.8-3-6.8-6.8s3-6.8,6.8-6.8c3.7,0,6.8,3,6.8,6.8S-239.3,398.8-243,398.8z M-243,387.2
		c-2.6,0-4.8,2.2-4.8,4.8s2.2,4.8,4.8,4.8s4.8-2.2,4.8-4.8S-240.4,387.2-243,387.2z"/>
	<path class="clientList" d="M-233.1,408.7h-19.8c-0.6,0-1-0.4-1-1c0-6,4.9-10.9,10.9-10.9s10.9,4.9,10.9,10.9
		C-232.1,408.3-232.6,408.7-233.1,408.7z M-251.9,406.7h17.7c-0.5-4.4-4.3-7.9-8.9-7.9S-251.4,402.3-251.9,406.7z"/>
	<path class="clientList" d="M-252.7,398.6c-2.9,0-5.3-2.4-5.3-5.3s2.4-5.3,5.3-5.3c0.4,0,0.9,0.1,1.3,0.2c0.5,0.1,0.9,0.7,0.7,1.2
		c-0.1,0.5-0.7,0.9-1.2,0.7c-0.3-0.1-0.5-0.1-0.8-0.1c-1.8,0-3.3,1.5-3.3,3.3s1.5,3.3,3.3,3.3c0.6,0,1,0.4,1,1
		S-252.1,398.6-252.7,398.6z"/>
	<path class="clientList" d="M-255.9,406h-4.2c-0.6,0-1-0.4-1-1c0-4.7,3.8-8.4,8.4-8.4c0.6,0,1,0.4,1,1s-0.4,1-1,1c-3.2,0-5.9,2.4-6.4,5.4
		h3.1c0.6,0,1,0.4,1,1S-255.3,406-255.9,406z"/>
	<path class="clientList" d="M-233.3,398.6c-0.6,0-1-0.4-1-1s0.4-1,1-1c1.8,0,3.3-1.5,3.3-3.3s-1.5-3.3-3.3-3.3c-0.3,0-0.5,0-0.8,0.1
		c-0.5,0.1-1.1-0.2-1.2-0.7c-0.1-0.5,0.2-1.1,0.7-1.2c0.4-0.1,0.9-0.2,1.3-0.2c2.9,0,5.3,2.4,5.3,5.3S-230.4,398.6-233.3,398.6z"/>
	<path class="clientList" d="M-225.9,406h-4.2c-0.6,0-1-0.4-1-1s0.4-1,1-1h3.1c-0.5-3.1-3.2-5.4-6.4-5.4c-0.6,0-1-0.4-1-1s0.4-1,1-1
		c4.7,0,8.4,3.8,8.4,8.4C-224.9,405.6-225.4,406-225.9,406z"/>
</g>
</svg>
