<svg version="1.1" id="Layer_1" xmlns="http://www.w3.org/2000/svg" xmlns:xlink="http://www.w3.org/1999/xlink" x="0px" y="0px"
	 viewBox="0 0 63 62.5" enable-background="new 0 0 63 62.5" xml:space="preserve">
<g>
	<g>
		<g>
			<g>
				<path fill="#FFFFFF" d="M31.5,45.3c7.7,0,14-6.3,14-14s-6.3-14-14-14c-7.7,0-14,6.3-14,14S23.8,45.3,31.5,45.3z M31.5,18.8
					c6.8,0,12.4,5.6,12.4,12.4c0,6.8-5.6,12.4-12.4,12.4s-12.4-5.6-12.4-12.4C19.1,24.4,24.7,18.8,31.5,18.8z"/>
			</g>
		</g>
	</g>
	<path fill="#FFFFFF" d="M29.5,23.4c0.3,0,0.5,0.1,0.7,0.3l6.8,6.8c0.4,0.4,0.4,1,0,1.4l-6.8,6.8c-0.4,0.4-1,0.4-1.4,0s-0.4-1,0-1.4
		l6.1-6.1l-6.1-6.1c-0.4-0.4-0.4-1,0-1.4C29,23.5,29.3,23.4,29.5,23.4z"/>
</g>
</svg>
