<svg version="1.1" id="Layer_1" xmlns="http://www.w3.org/2000/svg" xmlns:xlink="http://www.w3.org/1999/xlink" x="0px" y="0px"
	 viewBox="0 0 63 62.5" enable-background="new 0 0 63 62.5" xml:space="preserve">
<g>
	<g>
		<g>
			<g>
				<path fill="#FFFFFF" d="M31.5,17.2c-7.7,0-14,6.3-14,14s6.3,14,14,14c7.7,0,14-6.3,14-14S39.2,17.2,31.5,17.2z M31.5,43.7
					c-6.8,0-12.4-5.6-12.4-12.4c0-6.8,5.6-12.4,12.4-12.4s12.4,5.6,12.4,12.4C43.9,38.1,38.3,43.7,31.5,43.7z"/>
			</g>
		</g>
	</g>
	<path fill="#FFFFFF" d="M33.5,39.1c-0.3,0-0.5-0.1-0.7-0.3L25.9,32c-0.4-0.4-0.4-1,0-1.4l6.8-6.8c0.4-0.4,1-0.4,1.4,0s0.4,1,0,1.4
		L28,31.2l6.1,6.1c0.4,0.4,0.4,1,0,1.4C34,39,33.7,39.1,33.5,39.1z"/>
</g>
</svg>
